Info
[code]									  Toy Story 3 TS XViD - IMAGiNE
********************************************************************************
************************************

Ripper ...........: IMAGiNE										IMDB Rating.......:9.5/10							 
Video Codec.......: XVID										Release Date......:21/06/10
Audio Codec.......:AC3										   Theatre Date......:18/06/10
Audio Bitrate.....:128											  Runtime.......:1h 34mn
Subtitles.........:NIL												 Language..........:ENGLISH
Resolution...... 704 x 384									 IMDb URL..........:http://www.imdb.com/title/tt0435761/


DETAILS:

Video
Format						   : MPEG-4 Visual
Format profile				   : Streaming Video@L1
Format settings, BVOP			: Yes
Format settings, QPel			: No
Format settings, GMC			 : No warppoints
Format settings, Matrix		  : Default
Muxing mode					  : Packed bitstream
Codec ID						 : XVID
Codec ID/Hint					: XviD
Duration						 : 1h 34mn
Bit rate						 : 1 960 Kbps
Width							: 704 pixels
Height						   : 384 pixels
Display aspect ratio			 : 16/9
Frame rate					   : 25.000 fps
Resolution					   : 24 bits
Colorimetry					  : 4:2:0
Scan type						: Progressive
Bits/(Pixel*Frame)			   : 0.290
Stream size					  : 1.29 GiB (93%)
Writing library				  : XviD 50

Audio
Format						   : AC-3
Format/Info					  : Audio Coding 3
Codec ID						 : 2000
Duration						 : 1h 34mn
Bit rate mode					: Constant
Bit rate						 : 128 Kbps
Channel(s)					   : 2 channels
Channel positions				: L R
Sampling rate					: 48.0 KHz
Stream size					  : 86.2 MiB (6%)
Alignment						: Aligned on interleaves
Interleave, duration			 : 40 ms (1.00 video frame)
Interleave, preload duration	 : 512 ms



NOTES:

IMAGiNE bringing you another release.....Toy story 3 TS

Well first off thanks to prism for the audio and Relizlab for the video 
Now heres our xvid like promised......same filtering done as our dvdr,however we have added some more
deflicker on this,to try and get rid alot of the flicker.
Still has a pulse,but looks much better in our opinion now (then our cam video).
We have added two samples of where we think is the worse part of the video for the flicker,so you can see how 
bad it gets  
Anyway heres release 99895 of toy story 3 

Enjoy[/code]
Scrrens:
[img]http://imagine.takagari.com/TOY STORY 3 TS XVID/vlcsnap-532463.png[/img]
[img]http://imagine.takagari.com/TOY STORY 3 TS XVID/vlcsnap-533254.png[/img]
[img]http://imagine.takagari.com/TOY STORY 3 TS XVID/vlcsnap-534593.png[/img]
[img]http://imagine.takagari.com/TOY STORY 3 TS XVID/vlcsnap-535730.png[/img]
[img]http://imagine.takagari.com/TOY STORY 3 TS XVID/vlcsnap-536665.png[/img]